<?xml version="1.0" encoding="UTF-8" standalone="no"?>
<!-- Created with Inkscape (http://www.inkscape.org/) -->

<svg
   xmlns:dc="http://purl.org/dc/elements/1.1/"
   xmlns:cc="http://creativecommons.org/ns#"
   xmlns:rdf="http://www.w3.org/1999/02/22-rdf-syntax-ns#"
   xmlns:svg="http://www.w3.org/2000/svg"
   xmlns="http://www.w3.org/2000/svg"
   xmlns:sodipodi="http://sodipodi.sourceforge.net/DTD/sodipodi-0.dtd"
   xmlns:inkscape="http://www.inkscape.org/namespaces/inkscape"
   id="svg2"
   version="1.1"
   inkscape:version="0.92.3 (2405546, 2018-03-11)"
   xml:space="preserve"
   width="263.98703"
   height="68.348503"
   viewBox="0 0 263.98703 68.348503"
   sodipodi:docname="logo.svg"><metadata
     id="metadata8"><rdf:RDF><cc:Work
         rdf:about=""><dc:format>image/svg+xml</dc:format><dc:type
           rdf:resource="http://purl.org/dc/dcmitype/StillImage" /><dc:title></dc:title></cc:Work></rdf:RDF></metadata><defs
     id="defs6"><clipPath
       clipPathUnits="userSpaceOnUse"
       id="clipPath16"><path
         d="M 0,347 H 1026 V 0 H 0 Z"
         id="path18"
         inkscape:connector-curvature="0" /></clipPath></defs><sodipodi:namedview
     pagecolor="#ffffff"
     bordercolor="#666666"
     borderopacity="1"
     objecttolerance="10"
     gridtolerance="10"
     guidetolerance="10"
     inkscape:pageopacity="0"
     inkscape:pageshadow="2"
     inkscape:window-width="3200"
     inkscape:window-height="1658"
     id="namedview4"
     showgrid="false"
     inkscape:zoom="4.0180148"
     inkscape:cx="263.59681"
     inkscape:cy="-22.396611"
     inkscape:window-x="0"
     inkscape:window-y="68"
     inkscape:window-maximized="1"
     inkscape:current-layer="g10"
     fit-margin-top="0"
     fit-margin-left="0"
     fit-margin-right="0"
     fit-margin-bottom="0" /><g
     id="g10"
     inkscape:groupmode="layer"
     inkscape:label="callqx draft v2 - alt Q - outlined - 2"
     transform="matrix(1.25,0,0,-1.25,-563.75003,246.28649)"><g
       id="g20"
       transform="matrix(0.20909874,0,0,0.20909874,601.48826,183.44155)"><path
         d="m 0,0 c -15.865,16.416 -35.333,24.627 -58.406,24.627 -23.076,0 -42.546,-8.211 -58.406,-24.627 -15.864,-16.422 -23.794,-36.332 -23.794,-59.737 0,-23.411 7.93,-43.321 23.794,-59.738 15.86,-16.42 35.33,-24.625 58.406,-24.625 23.073,0 42.541,8.205 58.406,24.625 15.86,16.417 23.795,36.327 23.795,59.738 C 23.795,-36.332 15.86,-16.422 0,0"
         style="fill:#ffffff;fill-opacity:1;fill-rule:nonzero;stroke:none"
         id="path22"
         inkscape:connector-curvature="0" /></g><g
       id="g138"
       transform="matrix(0.20909874,0,0,0.20909874,589.17895,184.36826)"><path
         d="M 0,0 C 8.054,0 8.067,12.516 0,12.516 -8.054,12.516 -8.067,0 0,0"
         style="fill:#000000;fill-opacity:1;fill-rule:nonzero;stroke:none"
         id="path140"
         inkscape:connector-curvature="0" /></g><g
       id="g142"
       transform="matrix(0.20909874,0,0,0.20909874,581.83448,182.93112)"><path
         d="M 0,0 C 4.776,0 4.784,7.423 0,7.423 -4.776,7.423 -4.784,0 0,0"
         style="fill:#000000;fill-opacity:1;fill-rule:nonzero;stroke:none"
         id="path144"
         inkscape:connector-curvature="0" /></g><g
       id="g146"
       transform="matrix(0.20909874,0,0,0.20909874,576.47093,177.53213)"><path
         d="M 0,0 C 4.776,0 4.784,7.423 0,7.423 -4.776,7.423 -4.784,0 0,0"
         style="fill:#000000;fill-opacity:1;fill-rule:nonzero;stroke:none"
         id="path148"
         inkscape:connector-curvature="0" /></g><g
       id="g150"
       transform="matrix(0.20909874,0,0,0.20909874,574.52546,169.64212)"><path
         d="M 0,0 C 8.054,0 8.067,12.516 0,12.516 -8.054,12.516 -8.067,0 0,0"
         style="fill:#000000;fill-opacity:1;fill-rule:nonzero;stroke:none"
         id="path152"
         inkscape:connector-curvature="0" /></g><g
       id="g154"
       transform="matrix(0.20909874,0,0,0.20909874,576.51936,162.83021)"><path
         d="M 0,0 C 4.776,0 4.784,7.423 0,7.423 -4.776,7.423 -4.784,0 0,0"
         style="fill:#000000;fill-opacity:1;fill-rule:nonzero;stroke:none"
         id="path156"
         inkscape:connector-curvature="0" /></g><g
       id="g158"
       transform="matrix(0.20909874,0,0,0.20909874,581.91835,157.46666)"><path
         d="M 0,0 C 4.776,0 4.784,7.423 0,7.423 -4.776,7.423 -4.784,0 0,0"
         style="fill:#000000;fill-opacity:1;fill-rule:nonzero;stroke:none"
         id="path160"
         inkscape:connector-curvature="0" /></g><g
       id="g162"
       transform="matrix(0.20909874,0,0,0.20909874,589.2758,154.98861)"><path
         d="M 0,0 C 8.054,0 8.067,12.516 0,12.516 -8.054,12.516 -8.067,0 0,0"
         style="fill:#000000;fill-opacity:1;fill-rule:nonzero;stroke:none"
         id="path164"
         inkscape:connector-curvature="0" /></g><g
       id="g166"
       transform="matrix(0.20909874,0,0,0.20909874,601.98382,162.91408)"><path
         d="M 0,0 C 4.776,0 4.784,7.423 0,7.423 -4.776,7.423 -4.784,0 0,0"
         style="fill:#000000;fill-opacity:1;fill-rule:nonzero;stroke:none"
         id="path168"
         inkscape:connector-curvature="0" /></g><g
       id="g170"
       transform="matrix(0.20909874,0,0,0.20909874,603.92932,169.73896)"><path
         d="M 0,0 C 8.054,0 8.067,12.516 0,12.516 -8.054,12.516 -8.067,0 0,0"
         style="fill:#000000;fill-opacity:1;fill-rule:nonzero;stroke:none"
         id="path172"
         inkscape:connector-curvature="0" /></g><g
       id="g174"
       transform="matrix(0.20909874,0,0,0.20909874,601.93542,177.616)"><path
         d="M 0,0 C 4.776,0 4.784,7.423 0,7.423 -4.776,7.423 -4.784,0 0,0"
         style="fill:#000000;fill-opacity:1;fill-rule:nonzero;stroke:none"
         id="path176"
         inkscape:connector-curvature="0" /></g><g
       id="g178"
       transform="matrix(0.20909874,0,0,0.20909874,596.5364,182.97955)"><path
         d="M 0,0 C 4.776,0 4.784,7.423 0,7.423 -4.776,7.423 -4.784,0 0,0"
         style="fill:#000000;fill-opacity:1;fill-rule:nonzero;stroke:none"
         id="path180"
         inkscape:connector-curvature="0" /></g><g
       id="g182"
       transform="matrix(0.20909874,0,0,0.20909874,494.6429,186.91002)"><path
         d="m 0,0 -22.715,-28.312 c -16.79,18.106 -40.822,29.3 -64.197,29.3 -46.089,0 -82.302,-35.555 -82.302,-80.986 0,-45.431 36.213,-81.315 82.302,-81.315 23.045,0 46.749,10.535 64.197,27.325 l 23.044,-25.679 c -23.374,-23.045 -56.624,-37.859 -89.216,-37.859 -67.488,0 -119.832,51.028 -119.832,117.199 0,65.513 53.003,115.882 121.149,115.882 C -54.978,35.555 -22.386,22.057 0,0"
         style="fill:#000000;fill-opacity:1;fill-rule:nonzero;stroke:none"
         id="path184"
         inkscape:connector-curvature="0" /></g><g
       id="g186"
       transform="matrix(0.20909874,0,0,0.20909874,521.49304,158.82432)"><path
         d="m 0,0 v 16.132 h -47.406 c -24.691,0 -36.214,-6.585 -36.214,-23.375 0,-15.802 12.84,-26.007 33.909,-26.007 26.996,0 47.736,14.156 49.711,33.25 m 0.329,-40.163 c -12.51,-15.474 -32.592,-23.045 -57.941,-23.045 -37.859,0 -61.562,23.373 -61.562,54.319 0,31.934 24.032,52.345 66.171,52.674 H 0 v 5.267 c 0,22.057 -14.156,35.226 -41.81,35.226 -16.79,0 -34.238,-5.926 -51.686,-17.778 l -15.473,26.337 c 24.362,14.485 42.139,22.057 75.389,22.057 45.102,0 70.452,-23.045 70.781,-61.562 L 37.53,-61.562 H 0.329 Z"
         style="fill:#000000;fill-opacity:1;fill-rule:nonzero;stroke:none"
         id="path188"
         inkscape:connector-curvature="0" /></g><path
       d="m 535.12272,197.02919 h 7.91627 V 145.9518 h -7.91627 z"
       style="fill:#000000;fill-opacity:1;fill-rule:nonzero;stroke:none;stroke-width:0.20909874"
       id="path190"
       inkscape:connector-curvature="0" /><path
       d="m 550.26691,197.02919 h 7.91627 V 145.9518 h -7.91627 z"
       style="fill:#000000;fill-opacity:1;fill-rule:nonzero;stroke:none;stroke-width:0.20909874"
       id="path192"
       inkscape:connector-curvature="0" /><g
       id="g194"
       transform="matrix(0.20909874,0,0,0.20909874,582.24141,175.25887)"><path
         d="m 0,0 c 3.091,-1.195 6.107,-2.513 9.093,-3.879 2.982,-1.373 5.921,-2.817 8.845,-4.284 5.832,-2.963 11.562,-6.094 17.211,-9.356 l -4.055,-0.444 c 3.448,3.482 6.967,6.889 10.531,10.251 3.575,3.349 7.188,6.66 10.894,9.873 3.699,3.221 7.462,6.375 11.321,9.429 3.863,3.05 7.793,6.03 11.944,8.782 C 72.871,16.333 69.739,12.523 66.54,8.782 63.337,5.045 60.038,1.409 56.674,-2.161 53.319,-5.738 49.869,-9.218 46.382,-12.66 42.883,-16.089 39.34,-19.472 35.726,-22.78 l -1.959,-1.793 -2.097,1.349 c -5.487,3.528 -10.894,7.187 -16.199,11.015 -2.643,1.929 -5.273,3.88 -7.859,5.902 C 5.03,-4.278 2.478,-2.2 0,0"
         style="fill:#000000;fill-opacity:1;fill-rule:nonzero;stroke:none"
         id="path196"
         inkscape:connector-curvature="0" /></g><g
       id="g198"
       transform="matrix(0.20909874,0,0,0.20909874,652.07052,145.95187)"><path
         d="M 0,0 -56.624,86.582 H -58.27 L -114.894,0 h -48.393 l 79.009,118.186 -73.413,111.932 h 48.065 l 51.356,-77.694 h 1.646 l 51.358,77.694 H 42.799 L -30.617,118.186 48.394,0 Z"
         style="fill:#4f9f43;fill-opacity:1;fill-rule:nonzero;stroke:none"
         id="path200"
         inkscape:connector-curvature="0" /></g><g
       id="g202"
       transform="matrix(0.20909874,0,0,0.20909874,601.31805,183.39265)"><path
         d="m 0,0 c -15.694,16.239 -34.952,24.362 -57.777,24.362 -22.827,0 -42.087,-8.123 -57.776,-24.362 -15.693,-16.245 -23.538,-35.94 -23.538,-59.093 0,-23.159 7.845,-42.854 23.538,-59.094 15.689,-16.244 34.949,-24.361 57.776,-24.361 22.825,0 42.083,8.117 57.777,24.361 15.69,16.24 23.539,35.935 23.539,59.094 C 23.539,-35.94 15.69,-16.245 0,0 m -57.777,-178.103 c -11.932,-0.236 -32.667,1.055 -54.941,11.894 -6.064,2.951 -18.555,9.724 -31.311,22.18 -23.266,22.716 -34.897,51.026 -34.897,84.936 0,33.908 11.631,62.22 34.897,84.935 23.26,22.716 52.015,34.074 86.252,34.074 34.238,0 62.988,-11.358 86.253,-34.074 23.261,-22.715 34.897,-50.974 34.897,-84.771 0,-24.801 -7.23,-42.774 -9.148,-47.314 -3.839,-9.083 -8.208,-16.141 -11.592,-20.997 -5.652,-8.577 -19.586,-27.202 -45.044,-39.595 -23.607,-11.492 -45.129,-11.786 -55.366,-11.268"
         style="fill:#4f9f43;fill-opacity:1;fill-rule:nonzero;stroke:none"
         id="path204"
         inkscape:connector-curvature="0" /></g><g
       id="g206"
       transform="matrix(0.20909874,0,0,0.20909874,610.70857,142.35039)"><path
         d="M 0,0 -87.889,79.744 -57.436,106.58 28.822,27.307 Z"
         style="fill:#4f9f43;fill-opacity:1;fill-rule:nonzero;stroke:none"
         id="path208"
         inkscape:connector-curvature="0" /></g></g></svg>